<svg id="cctv-camera_1_" data-name="cctv-camera (1)" xmlns="http://www.w3.org/2000/svg" width="16.239" height="13.636" viewBox="0 0 16.239 13.636">
  <path id="패스_26700" data-name="패스 26700" d="M181.831,170.214a1.319,1.319,0,0,0,.044,1.015,1.338,1.338,0,0,0,.162.263h-2.2v-1.836h2.2Z" transform="translate(-177.942 -159.815)" fill="#fff"/>
  <path id="패스_26701" data-name="패스 26701" d="M213.774,144.143a.682.682,0,0,1,.682.682v4.391a.682.682,0,0,1-.682.682H212.9v-5.755Z" transform="translate(-212.899 -136.262)" fill="#fff"/>
  <path id="패스_26702" data-name="패스 26702" d="M133.382,142.789c.013-.036-.364-1.173-.364-1.173l3.269,1.178s-1.032.636-1.045.672l-.6,1.653a.99.99,0,1,1-1.86-.677Zm.357,2.465a.552.552,0,1,0-.552-.552A.552.552,0,0,0,133.739,145.254Z" transform="translate(-128.574 -133.929)" fill="#fff"/>
  <path id="패스_26703" data-name="패스 26703" d="M163.335,179.027a.214.214,0,1,1-.214.214A.214.214,0,0,1,163.335,179.027Z" transform="translate(-158.17 -168.467)" fill="#fff"/>
  <path id="패스_26704" data-name="패스 26704" d="M22.369,91.631a2.3,2.3,0,0,0-.685-1.235,2.346,2.346,0,0,1,1.662-.211,1.108,1.108,0,0,1,.228.354c.163.673-.476,1.831-1.21,2.868A4.161,4.161,0,0,0,22.369,91.631Z" transform="translate(-7.359 -86.382)" fill="#fff"/>
  <path id="패스_26705" data-name="패스 26705" d="M94.78,109.969a3.094,3.094,0,0,1-.073-.523s7.458,2.713,7.481,2.721a3.091,3.091,0,0,0,.482,1.621l-6.885-2.481a1.835,1.835,0,0,1-1-1.337Z" transform="translate(-92.037 -104.229)" fill="#fff"/>
  <path id="패스_26706" data-name="패스 26706" d="M41.571,99.753c.011.64.254,1.308.918,1.329.625,0,1.343-.717,1.731-1.782a3.538,3.538,0,0,0,.221-1.616,1.093,1.093,0,0,0-.743-1.026,4.561,4.561,0,0,1,.7-.554,1.894,1.894,0,0,1,.674,1.133,4.44,4.44,0,0,1-1.526,4.191,1.7,1.7,0,0,1-1.6.362,1.963,1.963,0,0,1-1.07-1.882A1.258,1.258,0,0,0,41.571,99.753Z" transform="translate(-30.391 -91.911)" fill="#fff"/>
  <path id="패스_26707" data-name="패스 26707" d="M56.519,108.288a3.2,3.2,0,0,1-.2,1.457c-.4,1.111-1.134,1.69-1.562,1.534-.3-.107-.475-.575-.426-1.219a1.358,1.358,0,0,0,.28-.422,10.215,10.215,0,0,1,.853-1.694q.152-.2.308-.37C56.255,107.415,56.469,107.907,56.519,108.288Zm-.818.386a.452.452,0,0,0-.455.125,1.222,1.222,0,0,0-.358.983.452.452,0,0,0,.268.389.351.351,0,0,0,.121.021.51.51,0,0,0,.335-.146,1.134,1.134,0,0,0,.289-.451C56.056,109.168,55.97,108.772,55.7,108.674Z" transform="translate(-42.803 -102.472)" fill="#fff"/>
  <path id="패스_26708" data-name="패스 26708" d="M66.163,127.2c-.06.054-.1.063-.114.059s-.038-.038-.049-.118a.805.805,0,0,1,.051-.369h0a.806.806,0,0,1,.2-.316.2.2,0,0,1,.108-.06h.006c.04.014.1.2,0,.487A.805.805,0,0,1,66.163,127.2Z" transform="translate(-53.581 -119.882)" fill="#fff"/>
  <path id="패스_26709" data-name="패스 26709" d="M38.1,45.31c.023-.07.048-.142.074-.213.924-2.539,2.579-3.951,4.12-3.516l9.214,3.358a4.484,4.484,0,0,0-2.591,1.828,11.087,11.087,0,0,0-.9,1.77,1.025,1.025,0,0,1-1.3.563l-8.242-3a.628.628,0,0,1-.381-.79Z" transform="translate(-36.531 -41.503)" fill="#fff"/>
</svg>
