<svg id="star" xmlns="http://www.w3.org/2000/svg" width="25" height="25" viewBox="0 0 10 13.636">
  <path id="패스_26710" data-name="패스 26710" d="M15,2a5,5,0,0,0-5,5c0,4.318,5,8.636,5,8.636S20,11.318,20,7a5,5,0,0,0-5-5Zm0,8.863A3.863,3.863,0,1,1,18.863,7,3.863,3.863,0,0,1,15,10.863Z" transform="translate(-10 -2)" fill="#fff"/>
  <path id="패스_26711" data-name="패스 26711" d="M24.272,13.565,23.5,12l-.772,1.565L21,13.816l1.25,1.218-.295,1.72,1.545-.812,1.545.812-.295-1.72L26,13.816Z" transform="translate(-18.5 -9.727)" fill="#fff"/>
</svg>
