<svg id="그룹_30970" data-name="그룹 30970" xmlns="http://www.w3.org/2000/svg" width="15.337" height="13.636" viewBox="0 0 15.337 13.636">
  <path id="free-icon-error-message-10769086" d="M19.152,18.71l-6.3-10.9a1.377,1.377,0,0,0-2.372,0l-6.3,10.9a1.378,1.378,0,0,0,1.186,2.054H17.966a1.378,1.378,0,0,0,1.186-2.054Zm-7.482.161a.548.548,0,0,1,0-1.1A.548.548,0,0,1,11.671,18.871Zm.962-6.731-.649,4.543a.317.317,0,0,1-.625,0l-.649-4.543a.822.822,0,0,1,.813-.938h.3a.822.822,0,0,1,.813.938Z" transform="translate(-4.002 -7.129)" fill="#fff"/>
</svg>
