<?xml version="1.0" encoding="utf-8"?>
<!-- Generator: Adobe Illustrator 25.4.1, SVG Export Plug-In . SVG Version: 6.00 Build 0)  -->
<svg version="1.1" id="Layer_1" xmlns="http://www.w3.org/2000/svg" xmlns:xlink="http://www.w3.org/1999/xlink" x="0px" y="0px"
	 viewBox="0 0 10 10" style="enable-background:new 0 0 10 10;" xml:space="preserve">
<style type="text/css">
	.st0{fill:#FFFFFF;}
	.st1{fill:#33353C;}
	.st2{fill:#474E58;}
</style>
<path id="패스_26689" class="st0" d="M7.2,2L4.6,4.6c-0.2,0.2-0.4,0.2-0.6,0c0,0,0,0,0,0L2.8,3.3c-0.2-0.2-0.2-0.4,0-0.6
	s0.4-0.2,0.6,0l1,1l2.3-2.3c0.2-0.2,0.4-0.2,0.6,0S7.4,1.8,7.2,2L7.2,2L7.2,2z"/>
<g>
	<g>
		<g>
			<rect x="0" y="0" class="st1" width="10" height="10"/>
		</g>
		<g>
			<path class="st2" d="M10,10H0V0h10V10z M0.5,9.5h9v-9h-9V9.5z"/>
		</g>
	</g>
	<path id="패스_26689_00000085216401801455471550000002378035109067486354_" class="st0" d="M7.2,4L4.6,6.6
		c-0.2,0.2-0.4,0.2-0.6,0c0,0,0,0,0,0L2.8,5.3c-0.2-0.2-0.2-0.4,0-0.6s0.4-0.2,0.6,0l1,1l2.3-2.3c0.2-0.2,0.4-0.2,0.6,0
		S7.4,3.8,7.2,4L7.2,4L7.2,4z"/>
</g>
</svg>
