<svg xmlns="http://www.w3.org/2000/svg" width="10.719" height="10.719" viewBox="0 0 10.719 10.719">
  <g id="그룹_32646" data-name="그룹 32646" transform="translate(-1714.887 -130)">
    <g id="calendar" transform="translate(1709.887 125)">
      <path id="패스_26804" data-name="패스 26804" d="M14.332,5.974H13.77V5.487a.487.487,0,0,0-.974,0v.487H7.923V5.487a.487.487,0,0,0-.974,0v.487H6.387A1.388,1.388,0,0,0,5,7.361V8.411H15.719V7.361A1.388,1.388,0,0,0,14.332,5.974Z" fill="#b73e43"/>
      <path id="패스_26805" data-name="패스 26805" d="M5,18.947a1.388,1.388,0,0,0,1.387,1.387h7.946a1.388,1.388,0,0,0,1.387-1.387V14H5Z" transform="translate(0 -4.615)" fill="#b73e43"/>
    </g>
  </g>
</svg>
