<svg xmlns="http://www.w3.org/2000/svg" width="13.22" height="13.222" viewBox="0 0 13.22 13.222">
  <path id="빼기_2" data-name="빼기 2" d="M6032.61-7148.779a6.619,6.619,0,0,1-6.611-6.611,6.619,6.619,0,0,1,6.611-6.611,6.618,6.618,0,0,1,6.609,6.611A6.618,6.618,0,0,1,6032.61-7148.779Zm0-9.953a2.454,2.454,0,0,0-2.452,2.452,5.749,5.749,0,0,0,2.322,4.2.228.228,0,0,0,.129.042.227.227,0,0,0,.129-.042,5.749,5.749,0,0,0,2.322-4.2A2.454,2.454,0,0,0,6032.61-7158.731Zm0,3.568a1.117,1.117,0,0,1-1.115-1.116,1.116,1.116,0,0,1,1.115-1.114,1.116,1.116,0,0,1,1.114,1.114A1.116,1.116,0,0,1,6032.61-7155.164Z" transform="translate(-6025.999 7162.001)" fill="#b73e43"/>
</svg>
