<svg xmlns="http://www.w3.org/2000/svg" width="16.22" height="16.22" viewBox="0 0 16.22 16.22">
  <path id="빼기_3" data-name="빼기 3" d="M8.11,16.22a8.11,8.11,0,1,1,8.11-8.11A8.119,8.119,0,0,1,8.11,16.22Zm0-5.731h0l1.953,1.028a.26.26,0,0,0,.118.029.249.249,0,0,0,.148-.049.256.256,0,0,0,.1-.248l-.373-2.174,1.58-1.54A.253.253,0,0,0,11.5,7.1L9.314,6.784,8.338,4.805a.264.264,0,0,0-.455,0L6.906,6.784,4.722,7.1a.254.254,0,0,0-.14.433l1.58,1.539-.374,2.175a.253.253,0,0,0,.25.3.255.255,0,0,0,.118-.029l1.953-1.027Z" fill="#b73e43"/>
</svg>
