<svg xmlns="http://www.w3.org/2000/svg" viewBox="0 0 52 64" width="30" height="30"><defs><style>.cls-1{fill:#a5a5a5;}.cls-2{fill:#fff;}</style></defs><title>Asset 4</title><g id="Layer_2" data-name="Layer 2"><g id="Layer_1-2" data-name="Layer 1"><path class="cls-1" d="M52,26A26,26,0,0,0,0,26c0,.34,0,.67,0,1H0C0,47.43,26,64,26,64S52,47.43,52,27h0C52,26.67,52,26.34,52,26Z"/>
<circle class="cls-2" cx="26" cy="24" r="17"/>
<path class="cls-1" d="M37.21,22.76l-6.11,3.7a3.07,3.07,0,0,1-1.48.4,2.31,2.31,0,0,1-1.37-.28l-1.78-1.07a3.13,3.13,0,0,1-1.11,1,3.08,3.08,0,0,1-1.47.37v1.56a4.66,4.66,0,0,1-4.68,4.67v1.56a1.53,1.53,0,0,1-.45,1.1,1.55,1.55,0,0,1-2.2,0,1.51,1.51,0,0,1-.47-1.1V30a1.49,1.49,0,0,1,.47-1.09,1.55,1.55,0,0,1,2.2,0A1.51,1.51,0,0,1,19.21,30v1.56a3.11,3.11,0,0,0,3.12-3.11v-2a3.19,3.19,0,0,1-1.13-1.12,2.91,2.91,0,0,1-.43-1.56,3,3,0,0,1,.37-1.44l-4.27-2.56a1.52,1.52,0,0,1-.73-1,1.56,1.56,0,0,1,.15-1.2l3.07-5.51a1.51,1.51,0,0,1,.95-.75,1.32,1.32,0,0,1,1.14.17l16,9.55a.81.81,0,0,1,.5.81A1.33,1.33,0,0,1,37.21,22.76Zm.34,1.71a.63.63,0,0,1,.34.45.75.75,0,0,1-.07.57l-1.49,2.58a.7.7,0,0,1-1,.27l-2.71-1.56L37,24.15Z"/></g></g></svg>