<svg width="188" height="30" viewBox="0 0 188 30" fill="none" xmlns="http://www.w3.org/2000/svg">
<path d="M187.167 21.908H184.667V10.928H187.167V21.908ZM179.247 17.448V15.328H181.048V11.188H183.507V21.768H181.048V17.448H179.247ZM179.988 20.788C179.468 20.8813 178.961 20.9546 178.467 21.008C177.974 21.0613 177.467 21.108 176.947 21.148C176.441 21.1746 175.901 21.1946 175.327 21.208C174.754 21.208 174.127 21.208 173.447 21.208H172.188V12.008H179.107V14.088H174.727V15.548H178.467V17.548H174.727V19.128C175.687 19.128 176.561 19.1013 177.348 19.048C178.148 18.9813 178.954 18.868 179.768 18.708L179.988 20.788ZM187.167 22.628V29.108H174.688V22.628H187.167ZM184.587 27.048V24.688H177.288V27.048H184.587Z" fill="white"/>
<path d="M165.049 21.788C163.436 21.468 162.056 20.888 160.909 20.048C159.776 19.208 158.909 18.2014 158.309 17.028C157.709 18.2014 156.842 19.2147 155.709 20.068C154.576 20.908 153.202 21.4814 151.589 21.788L150.469 19.588C151.509 19.4147 152.429 19.1147 153.229 18.688C154.029 18.248 154.702 17.7414 155.249 17.168C155.796 16.5947 156.209 15.9747 156.489 15.308C156.769 14.628 156.909 13.9614 156.909 13.308V11.988H159.729V13.308C159.729 13.9747 159.869 14.648 160.149 15.328C160.429 15.9947 160.842 16.6147 161.389 17.188C161.936 17.7614 162.609 18.2614 163.409 18.688C164.209 19.1147 165.129 19.4147 166.169 19.588L165.049 21.788ZM166.749 27.088H150.069V24.948H166.749V27.088Z" fill="white"/>
<path d="M143.931 29.3679H141.291V10.8879H143.931V29.3679ZM135.811 15.0079C135.811 15.8613 135.904 16.7013 136.091 17.5279C136.277 18.3546 136.557 19.1279 136.931 19.8479C137.304 20.5679 137.777 21.2146 138.351 21.7879C138.937 22.3479 139.617 22.7946 140.391 23.1279L138.891 25.2679C137.811 24.7879 136.917 24.1146 136.211 23.2479C135.504 22.3679 134.944 21.3613 134.531 20.2279C134.117 21.4813 133.544 22.5813 132.811 23.5279C132.077 24.4613 131.144 25.1879 130.011 25.7079L128.431 23.5279C129.231 23.1813 129.931 22.7146 130.531 22.1279C131.131 21.5279 131.624 20.8546 132.011 20.1079C132.397 19.3479 132.684 18.5346 132.871 17.6679C133.071 16.7879 133.171 15.9013 133.171 15.0079V12.3279H135.811V15.0079Z" fill="white"/>
<path d="M122.532 29.328H119.892V10.908H122.532V29.328ZM114.392 15.868C114.392 16.6146 114.486 17.368 114.672 18.128C114.859 18.8746 115.139 19.5813 115.512 20.248C115.899 20.9146 116.372 21.5146 116.932 22.048C117.506 22.5813 118.179 23.008 118.952 23.328L117.512 25.408C116.432 24.9413 115.526 24.288 114.792 23.448C114.072 22.5946 113.506 21.6013 113.092 20.468C112.679 21.6813 112.099 22.7613 111.352 23.708C110.619 24.6546 109.712 25.3746 108.632 25.868L107.132 23.768C107.906 23.4213 108.579 22.9613 109.152 22.388C109.726 21.8146 110.199 21.1813 110.572 20.488C110.959 19.7813 111.246 19.0346 111.432 18.248C111.619 17.448 111.712 16.6546 111.712 15.868V14.848H107.872V12.668H118.192V14.848H114.392V15.868Z" fill="white"/>
<path d="M100.374 17.068V21.168H97.7337V10.908H100.374V14.908H102.814V17.068H100.374ZM95.2737 11.968C95.2737 14.4213 94.527 16.468 93.0337 18.108C91.5537 19.7346 89.447 20.9013 86.7137 21.608L85.6737 19.528C87.727 19.0213 89.3137 18.288 90.4337 17.328C91.5537 16.368 92.207 15.2813 92.3937 14.068H86.5537V11.968H95.2737ZM100.374 21.908V29.108H88.4337V21.908H100.374ZM97.7737 27.048V23.988H91.0137V27.048H97.7737Z" fill="white"/>
<path d="M79.8153 29.3079H77.1553V10.8879H79.8153V29.3079ZM74.3353 12.8079C74.3353 14.2079 74.2019 15.5479 73.9353 16.8279C73.6686 18.1079 73.2086 19.3146 72.5553 20.4479C71.9153 21.5679 71.0553 22.6146 69.9753 23.5879C68.8953 24.5479 67.5353 25.4213 65.8953 26.2079L64.5153 24.1279C65.6886 23.5679 66.7019 22.9679 67.5553 22.3279C68.4086 21.6746 69.1219 20.9679 69.6953 20.2079C70.2686 19.4479 70.7086 18.6279 71.0153 17.7479C71.3353 16.8679 71.5419 15.9213 71.6353 14.9079H65.4953V12.8079H74.3353Z" fill="white"/>
<path d="M43.7369 19.7079C44.7102 19.5612 45.5702 19.3145 46.3169 18.9679C47.0636 18.6212 47.6969 18.2145 48.2169 17.7479C48.7369 17.2679 49.1436 16.7412 49.4369 16.1679C49.7302 15.5945 49.9102 15.0079 49.9769 14.4079H44.4569V12.3079H58.3369V14.4079H52.8169C52.8702 15.0079 53.0436 15.5879 53.3369 16.1479C53.6436 16.7079 54.0636 17.2212 54.5969 17.6879C55.1302 18.1545 55.7769 18.5545 56.5369 18.8879C57.3102 19.2212 58.1836 19.4612 59.1569 19.6079L58.1569 21.6879C56.4502 21.3945 55.0502 20.8812 53.9569 20.1479C52.8636 19.4012 52.0169 18.4879 51.4169 17.4079C50.8436 18.5412 49.9902 19.4812 48.8569 20.2279C47.7369 20.9745 46.3702 21.4945 44.7569 21.7879L43.7369 19.7079ZM59.7569 27.1879H43.0769V25.0479H50.0969V20.9879H52.7369V25.0479H59.7569V27.1879Z" fill="white"/>
<path d="M23.7985 17.348V11.188H26.4185V12.408H33.5985V11.188H36.2185V17.348H23.7985ZM26.4185 14.328V15.408H33.5985V14.328H26.4185ZM31.2985 21.548H36.2985V26.228H26.2185V27.228H36.7785V29.188H23.5985V24.408H33.6985V23.488H23.5785V21.548H28.6585V20.408H21.6785V18.328H38.3385V20.408H31.2985V21.548Z" fill="white"/>
<path d="M17.22 18.428H14.78V24.388H12.14V10.908H14.78V16.248H17.22V18.428ZM9.94 21.708C8.94 21.3746 8.09333 20.8946 7.4 20.268C6.72 19.6413 6.18 18.908 5.78 18.068C5.36667 18.988 4.79333 19.7946 4.06 20.488C3.34 21.1813 2.45333 21.7013 1.4 22.048L0 19.988C0.773333 19.7346 1.43333 19.4013 1.98 18.988C2.54 18.5613 3 18.088 3.36 17.568C3.72 17.0346 3.98 16.468 4.14 15.868C4.31333 15.2546 4.4 14.6346 4.4 14.008V12.028H7.08V14.028C7.08 14.6146 7.16 15.1946 7.32 15.768C7.48 16.328 7.72667 16.8613 8.06 17.368C8.40667 17.8613 8.84667 18.308 9.38 18.708C9.91333 19.0946 10.5533 19.408 11.3 19.648L9.94 21.708ZM15.42 26.908V29.008H2.92V23.108H5.56V26.908H15.42Z" fill="white"/>
<path d="M178.482 0.776057L179.482 0.00805664V5.60806H178.482V2.04006L177.498 2.79206L176.682 3.42406L175.866 2.79206L174.882 2.04006V5.60806H173.882V0.00805664L174.882 0.776057L176.682 2.16006L178.482 0.776057Z" fill="#C33C4D" fill-opacity="0.88"/>
<path d="M168.996 1.00806C168.716 1.00806 168.484 1.24006 168.484 1.52006V2.04006H172.084V3.04006H168.484V4.09606C168.484 4.37606 168.716 4.60806 168.996 4.60806H173.084V5.60806H168.996C168.164 5.60806 167.492 4.92806 167.492 4.09606V1.52006C167.492 0.688057 168.164 0.00805664 168.996 0.00805664H173.084V1.00806H168.996Z" fill="#C33C4D" fill-opacity="0.88"/>
<path d="M161.086 0.0161133H166.678V1.01611H164.382V5.61611H163.382V1.01611H161.086V0.0161133Z" fill="#C33C4D" fill-opacity="0.88"/>
<path d="M160.553 1.55206L159.553 1.56006V1.52806C159.553 1.24806 159.322 1.01606 159.042 1.01606H156.77C156.49 1.01606 156.257 1.24806 156.257 1.52806V1.56006C156.257 1.84006 156.49 2.07206 156.77 2.07206H158.785C159.305 2.07206 159.769 2.29606 160.089 2.64806C160.113 2.67206 160.13 2.69606 160.154 2.72006C160.402 3.02406 160.553 3.41606 160.553 3.84006C160.553 4.81606 159.761 5.60806 158.785 5.60806H157.033C156.057 5.60806 155.266 4.81606 155.266 3.84006H156.266C156.266 4.26406 156.609 4.60806 157.033 4.60806H158.785C159.209 4.60806 159.561 4.26406 159.561 3.84006C159.561 3.41606 159.209 3.07206 158.785 3.07206H156.77C156.362 3.07206 155.993 2.91206 155.721 2.64806C155.649 2.57606 155.585 2.49606 155.529 2.40806C155.361 2.16806 155.266 1.87206 155.266 1.55206V1.52006C155.266 0.688057 155.938 0.00805664 156.77 0.00805664H159.042C159.874 0.00805664 160.553 0.688057 160.553 1.52006V1.55206Z" fill="#C33C4D" fill-opacity="0.88"/>
<path d="M153.633 0H154.889L152.721 2.808L152.601 2.96V5.6H151.601V2.976L151.465 2.808L149.297 0H150.561L152.097 1.992L153.633 0ZM149.289 5.624V5.608H149.305L149.289 5.624ZM154.889 5.624L154.881 5.608H154.889V5.624Z" fill="#C33C4D" fill-opacity="0.88"/>
<path d="M148.936 1.55206L147.936 1.56006V1.52806C147.936 1.24806 147.704 1.01606 147.424 1.01606H145.152C144.872 1.01606 144.64 1.24806 144.64 1.52806V1.56006C144.64 1.84006 144.872 2.07206 145.152 2.07206H147.168C147.688 2.07206 148.152 2.29606 148.472 2.64806C148.496 2.67206 148.512 2.69606 148.536 2.72006C148.784 3.02406 148.936 3.41606 148.936 3.84006C148.936 4.81606 148.144 5.60806 147.168 5.60806H145.416C144.44 5.60806 143.648 4.81606 143.648 3.84006H144.648C144.648 4.26406 144.992 4.60806 145.416 4.60806H147.168C147.592 4.60806 147.944 4.26406 147.944 3.84006C147.944 3.41606 147.592 3.07206 147.168 3.07206H145.152C144.744 3.07206 144.376 2.91206 144.104 2.64806C144.032 2.57606 143.968 2.49606 143.912 2.40806C143.744 2.16806 143.648 1.87206 143.648 1.55206V1.52006C143.648 0.688057 144.32 0.00805664 145.152 0.00805664H147.424C148.256 0.00805664 148.936 0.688057 148.936 1.52006V1.55206Z" fill="#C33C4D" fill-opacity="0.88"/>
<path d="M137.943 0.00805664L138.943 0.0160565V5.61606L137.943 4.84806L134.343 2.07206V5.61606H133.343V0.0320568L134.343 0.800057L137.943 3.57606V0.00805664Z" fill="#C33C4D" fill-opacity="0.88"/>
<path d="M129.936 0.00805664C131.48 0.00805664 132.736 1.26406 132.736 2.80806C132.736 4.35206 131.48 5.60806 129.936 5.60806C128.392 5.60806 127.136 4.35206 127.136 2.80806C127.136 1.26406 128.392 0.00805664 129.936 0.00805664ZM129.936 4.60806C130.928 4.60806 131.736 3.80006 131.736 2.80806C131.736 1.81606 130.928 1.00806 129.936 1.00806C128.944 1.00806 128.136 1.81606 128.136 2.80806C128.136 3.80006 128.944 4.60806 129.936 4.60806Z" fill="#C33C4D" fill-opacity="0.88"/>
<path d="M126.531 5.60806H125.531V0.00805664H126.531V5.60806Z" fill="#C33C4D" fill-opacity="0.88"/>
<path d="M119.132 0.0161133H124.724V1.01611H122.428V5.61611H121.428V1.01611H119.132V0.0161133Z" fill="#C33C4D" fill-opacity="0.88"/>
<path d="M115.532 1.00806C114.54 1.00806 113.732 1.81606 113.732 2.80806C113.732 3.80006 114.54 4.60806 115.532 4.60806H118.332V5.60806H115.532C113.988 5.60806 112.732 4.35206 112.732 2.80806C112.732 1.26406 113.988 0.00805664 115.532 0.00805664H118.332V1.00806H115.532Z" fill="#C33C4D" fill-opacity="0.88"/>
<path d="M108.363 1.00806C108.083 1.00806 107.851 1.24006 107.851 1.52006V2.04006H111.451V3.04006H107.851V4.09606C107.851 4.37606 108.083 4.60806 108.363 4.60806H112.451V5.60806H108.363C107.531 5.60806 106.859 4.92806 106.859 4.09606V1.52006C106.859 0.688057 107.531 0.00805664 108.363 0.00805664H112.451V1.00806H108.363Z" fill="#C33C4D" fill-opacity="0.88"/>
<path d="M100.453 0.0161133H106.045V1.01611H103.749V5.61611H102.749V1.01611H100.453V0.0161133Z" fill="#C33C4D" fill-opacity="0.88"/>
<path d="M95.5663 1.00806C95.2863 1.00806 95.0543 1.24006 95.0543 1.52006V2.04006H98.6543V3.04006H95.0543V4.09606C95.0543 4.37606 95.2863 4.60806 95.5663 4.60806H99.6543V5.60806H95.5663C94.7343 5.60806 94.0623 4.92806 94.0623 4.09606V1.52006C94.0623 0.688057 94.7343 0.00805664 95.5663 0.00805664H99.6543V1.00806H95.5663Z" fill="#C33C4D" fill-opacity="0.88"/>
<path d="M90.4559 0.00805664L90.4479 0.0160565C91.9919 0.0160565 93.2479 1.26406 93.2479 2.80806C93.2479 3.49606 92.9999 4.12806 92.5839 4.61606C92.5359 4.67206 92.4799 4.72806 92.4239 4.78406C91.9199 5.29606 91.2239 5.60806 90.4559 5.60806H87.6559V0.00805664H90.4559ZM90.4479 4.61606C91.4399 4.61606 92.2479 3.80806 92.2479 2.81606C92.2479 1.82406 91.4399 1.01606 90.4479 1.01606H88.6479V4.61606H90.4479Z" fill="#C33C4D" fill-opacity="0.88"/>
<path d="M81.695 0H82.951L80.783 2.808L80.663 2.96V5.6H79.663V2.976L79.527 2.808L77.359 0H78.623L80.159 1.992L81.695 0ZM77.351 5.624V5.608H77.367L77.351 5.624ZM82.951 5.624L82.943 5.608H82.951V5.624Z" fill="#C33C4D" fill-opacity="0.88"/>
<path d="M75.3828 4.60811L78.3188 4.61611V5.61611H75.4788C75.1988 5.61611 74.9348 5.55211 74.6948 5.43211C74.3428 5.25611 74.0548 4.96811 73.8868 4.61611C73.7668 4.37611 73.7028 4.11211 73.7028 3.83211V0.0161133H74.7028V3.92811C74.7508 4.28011 75.0308 4.56011 75.3828 4.60811Z" fill="#C33C4D" fill-opacity="0.88"/>
<path d="M71.579 3.02393L72.379 4.62393L72.891 5.62393H71.771L71.259 4.62393L70.723 3.57593L70.699 3.52793C70.523 3.23993 70.211 3.04793 69.851 3.04793H68.851V5.62393H67.851V0.0239258H71.387C71.803 0.0239258 72.179 0.191926 72.451 0.463926C72.723 0.735926 72.891 1.11193 72.891 1.52793C72.891 2.13593 72.531 2.66393 72.011 2.90393C71.875 2.96793 71.731 3.00793 71.579 3.02393ZM68.851 2.05593L71.387 2.04793C71.459 2.04793 71.531 2.03193 71.595 1.99993C71.779 1.91993 71.899 1.73593 71.899 1.53593C71.899 1.35193 71.803 1.22393 71.747 1.16793C71.683 1.10393 71.563 1.02393 71.387 1.02393H68.851V2.05593Z" fill="#C33C4D" fill-opacity="0.88"/>
<path d="M66.8641 4.60806L67.3761 5.60806H66.2561L65.7441 4.60806L64.5201 2.20806L63.2961 4.60806L62.7841 5.60806H61.6641L62.1761 4.60806L64.5201 0.00805664L66.8641 4.60806Z" fill="#C33C4D" fill-opacity="0.88"/>
<path d="M57.0976 1.00806C56.8176 1.00806 56.5856 1.24006 56.5856 1.52006V2.04006H60.1856V3.04006H56.5856V4.09606C56.5856 4.37606 56.8176 4.60806 57.0976 4.60806H61.1856V5.60806H57.0976C56.2656 5.60806 55.5936 4.92806 55.5936 4.09606V1.52006C55.5936 0.688057 56.2656 0.00805664 57.0976 0.00805664H61.1856V1.00806H57.0976Z" fill="#C33C4D" fill-opacity="0.88"/>
<path d="M46.8008 1.00806C46.5208 1.00806 46.2888 1.24006 46.2888 1.52006V2.04006H49.8888V3.04006H46.2888V4.09606C46.2888 4.37606 46.5208 4.60806 46.8008 4.60806H50.8888V5.60806H46.8008C45.9688 5.60806 45.2968 4.92806 45.2968 4.09606V1.52006C45.2968 0.688057 45.9688 0.00805664 46.8008 0.00805664H50.8888V1.00806H46.8008Z" fill="#C33C4D" fill-opacity="0.88"/>
<path d="M43.1649 3.02393L43.9649 4.62393L44.4769 5.62393H43.3569L42.8449 4.62393L42.3089 3.57593L42.2849 3.52793C42.1089 3.23993 41.7969 3.04793 41.4369 3.04793H40.4369V5.62393H39.4369V0.0239258H42.9729C43.3889 0.0239258 43.7649 0.191926 44.0369 0.463926C44.3089 0.735926 44.4769 1.11193 44.4769 1.52793C44.4769 2.13593 44.1169 2.66393 43.5969 2.90393C43.4609 2.96793 43.3169 3.00793 43.1649 3.02393ZM40.4369 2.05593L42.9729 2.04793C43.0449 2.04793 43.1169 2.03193 43.1809 1.99993C43.3649 1.91993 43.4849 1.73593 43.4849 1.53593C43.4849 1.35193 43.3889 1.22393 43.3329 1.16793C43.2689 1.10393 43.1489 1.02393 42.9729 1.02393H40.4369V2.05593Z" fill="#C33C4D" fill-opacity="0.88"/>
<path d="M38.6481 5.60806H37.6481V0.00805664H38.6481V5.60806Z" fill="#C33C4D" fill-opacity="0.88"/>
<path d="M32.7617 0.0079999L36.8577 0V1H32.7697C32.4897 1 32.2577 1.232 32.2577 1.512V2.032H35.8577V3.032H32.2497V5.6H31.2577V1.52C31.2577 0.688 31.9297 0.0079999 32.7617 0.0079999Z" fill="#C33C4D" fill-opacity="0.88"/>
<path d="M27.6512 0.00805664L27.6432 0.0160565C29.1872 0.0160565 30.4432 1.26406 30.4432 2.80806C30.4432 3.49606 30.1952 4.12806 29.7792 4.61606C29.7312 4.67206 29.6752 4.72806 29.6192 4.78406C29.1152 5.29606 28.4192 5.60806 27.6512 5.60806H24.8512V0.00805664H27.6512ZM27.6432 4.61606C28.6352 4.61606 29.4432 3.80806 29.4432 2.81606C29.4432 1.82406 28.6352 1.01606 27.6432 1.01606H25.8432V4.61606H27.6432Z" fill="#C33C4D" fill-opacity="0.88"/>
<path d="M21.1171 4.60811L24.0531 4.61611V5.61611H21.2131C20.9331 5.61611 20.6691 5.55211 20.4291 5.43211C20.0771 5.25611 19.7891 4.96811 19.6211 4.61611C19.5011 4.37611 19.4371 4.11211 19.4371 3.83211V0.0161133H20.4371V3.92811C20.4851 4.28011 20.7651 4.56011 21.1171 4.60811Z" fill="#C33C4D" fill-opacity="0.88"/>
<path d="M18.6403 5.60806H17.6403V0.00805664H18.6403V5.60806Z" fill="#C33C4D" fill-opacity="0.88"/>
<path d="M16.8439 0.00805664L15.5319 4.40006L15.1719 5.60806L14.4359 4.58406L13.3239 3.05606L12.2199 4.58406L11.4839 5.60006L11.1239 4.40006L9.81995 0.00805664H10.8599L11.8679 3.38406L12.7159 2.20806L12.8759 1.98406L13.3319 1.36006L13.7879 1.98406L13.9479 2.20806L14.7959 3.38406L15.8039 0.00805664H16.8439Z" fill="#C33C4D" fill-opacity="0.88"/>
</svg>
