<svg width="299" height="41" viewBox="0 0 299 41" fill="none" xmlns="http://www.w3.org/2000/svg">
<path d="M298.698 15.529H294.87V0.25H298.698V15.529ZM275.73 0.580002H286.851V3.814H279.558V5.959H285.894V9.061H279.558V11.206H287.841V14.44H275.73V0.580002ZM277.347 17.146H298.698V27.64H277.347V17.146ZM294.804 24.274V20.512H281.241V24.274H294.804ZM287.016 5.794H289.458V0.316001H293.187V15.463H289.458V9.226H287.016V5.794Z" fill="white"/>
<path d="M264.713 26.98H241.415V23.482H264.713V26.98ZM247.157 0.25H251.282L249.863 4.474H259.235C259.631 4.474 259.95 4.573 260.192 4.771C260.434 4.947 260.61 5.178 260.72 5.464L264.548 16.882H260.39L257.552 8.302C257.486 8.06 257.321 7.939 257.057 7.939H248.708L245.738 16.882H241.58L247.157 0.25Z" fill="white"/>
<path d="M229.738 27.64H225.712V0.25H229.738V27.64ZM212.809 0.25H216.835L214.459 10.282H218.485C218.859 10.282 219.167 10.381 219.409 10.579C219.651 10.777 219.816 11.041 219.904 11.371L223.897 27.31H219.904L216.571 14.11C216.505 13.89 216.351 13.78 216.109 13.78H213.667L210.466 27.31H206.44L212.809 0.25Z" fill="white"/>
<path d="M195.423 27.64H191.397V0.25H195.423V27.64ZM178.263 3.946H173.115V0.580002H188.625V3.946H182.289L180.408 11.536H184.203C184.577 11.536 184.885 11.635 185.127 11.833C185.369 12.031 185.534 12.295 185.622 12.625L189.285 27.31H185.259L182.256 15.232C182.19 15.012 182.036 14.902 181.794 14.902H179.55L176.481 27.31H172.455L178.263 3.946Z" fill="white"/>
<path d="M156.455 0.580078H163.22V4.07808H160.481V14.7041H156.455V0.580078ZM138.173 10.8761H138.503C140.043 10.8761 141.44 10.6891 142.694 10.3151C143.97 9.94108 145.048 9.44608 145.928 8.83008C146.808 8.19208 147.49 7.45508 147.974 6.61908C148.458 5.78308 148.7 4.91408 148.7 4.01208H138.503V0.580078H152.726V3.05508C152.726 4.81508 152.363 6.39908 151.637 7.80708C150.933 9.19308 149.943 10.3701 148.667 11.3381C147.391 12.3061 145.884 13.0541 144.146 13.5821C142.43 14.1101 140.549 14.3741 138.503 14.3741H138.173V10.8761ZM139.46 16.3211H160.481V27.6401H139.46V16.3211ZM156.587 24.2741V19.6871H143.354V24.2741H156.587Z" fill="white"/>
<path d="M126.794 27.64H122.768V0.25H126.794V27.64ZM104.156 23.812H104.486C105.96 23.812 107.313 23.537 108.545 22.987C109.799 22.437 110.877 21.645 111.779 20.611C112.681 19.577 113.385 18.323 113.891 16.849C114.419 15.353 114.683 13.659 114.683 11.767V4.012H104.486V0.580002H118.709V11.767C118.709 13.989 118.379 16.046 117.719 17.938C117.081 19.83 116.146 21.469 114.914 22.855C113.682 24.241 112.186 25.33 110.426 26.122C108.666 26.914 106.686 27.31 104.486 27.31H104.156V23.812Z" fill="white"/>
<path d="M93.1387 26.9801H69.8407V23.4821H79.4767V15.9251H83.5027V23.4821H93.1387V26.9801ZM76.9687 3.94608H70.6657V0.580078H92.3137V3.94608H81.1597L79.1137 7.97208H87.0667C87.4407 7.97208 87.7377 8.06008 87.9577 8.23608C88.1997 8.39008 88.4087 8.62108 88.5847 8.92908L92.8087 17.2121H88.6177L85.7467 11.6021C85.6587 11.4261 85.5047 11.3381 85.2847 11.3381H77.3647L74.3617 17.2121H70.1707L76.9687 3.94608Z" fill="white"/>
<path d="M49.1879 14.5721V16.3871H57.9989V23.3501H40.2779V24.7691H58.3289V27.6401H36.3509V20.6441H54.0719V19.2251H36.3509V16.3871H45.1619V14.5721H35.5259V11.3381H58.8239V14.5721H49.1879ZM36.3509 0.580078H40.2119V2.06508H54.1379V0.580078H57.9989V9.78708H36.3509V0.580078ZM54.1379 6.68508V5.13408H40.2119V6.68508H54.1379Z" fill="white"/>
<path d="M19.196 0.580002H25.961V4.078H23.222V19.852H19.196V0.580002ZM6.62303 0.25H10.748L8.57003 5.2H12.233C12.607 5.2 12.915 5.299 13.157 5.497C13.421 5.673 13.619 5.904 13.751 6.19L17.711 14.704H13.586L10.913 9.028C10.825 8.808 10.649 8.698 10.385 8.698H7.01903L4.37903 14.704H0.254028L6.62303 0.25ZM2.20103 17.608H6.19403V24.142H23.849V27.64H2.20103V17.608Z" fill="white"/>
<path d="M197.328 33.96L198.578 33V40H197.328V35.54L196.098 36.48L195.078 37.27L194.058 36.48L192.828 35.54V40H191.578V33L192.828 33.96L195.078 35.69L197.328 33.96Z" fill="#AE3746"/>
<path d="M185.97 34.25C185.62 34.25 185.33 34.54 185.33 34.89V35.54H189.83V36.79H185.33V38.11C185.33 38.46 185.62 38.75 185.97 38.75H191.08V40H185.97C184.93 40 184.09 39.15 184.09 38.11V34.89C184.09 33.85 184.93 33 185.97 33H191.08V34.25H185.97Z" fill="#AE3746"/>
<path d="M176.582 33.0098H183.572V34.2598H180.702V40.0098H179.452V34.2598H176.582V33.0098Z" fill="#AE3746"/>
<path d="M176.417 34.93L175.167 34.94V34.9C175.167 34.55 174.877 34.26 174.527 34.26H171.687C171.337 34.26 171.047 34.55 171.047 34.9V34.94C171.047 35.29 171.337 35.58 171.687 35.58H174.207C174.857 35.58 175.437 35.86 175.837 36.3C175.867 36.33 175.887 36.36 175.917 36.39C176.227 36.77 176.417 37.26 176.417 37.79C176.417 39.01 175.427 40 174.207 40H172.017C170.797 40 169.807 39.01 169.807 37.79H171.057C171.057 38.32 171.487 38.75 172.017 38.75H174.207C174.737 38.75 175.177 38.32 175.177 37.79C175.177 37.26 174.737 36.83 174.207 36.83H171.687C171.177 36.83 170.717 36.63 170.377 36.3C170.287 36.21 170.207 36.11 170.137 36C169.927 35.7 169.807 35.33 169.807 34.93V34.89C169.807 33.85 170.647 33 171.687 33H174.527C175.567 33 176.417 33.85 176.417 34.89V34.93Z" fill="#AE3746"/>
<path d="M168.266 32.9902H169.836L167.126 36.5002L166.976 36.6902V39.9902H165.726V36.7102L165.556 36.5002L162.846 32.9902H164.426L166.346 35.4802L168.266 32.9902ZM162.836 40.0202V40.0002H162.856L162.836 40.0202ZM169.836 40.0202L169.826 40.0002H169.836V40.0202Z" fill="#AE3746"/>
<path d="M162.895 34.93L161.645 34.94V34.9C161.645 34.55 161.355 34.26 161.005 34.26H158.165C157.815 34.26 157.525 34.55 157.525 34.9V34.94C157.525 35.29 157.815 35.58 158.165 35.58H160.685C161.335 35.58 161.915 35.86 162.315 36.3C162.345 36.33 162.365 36.36 162.395 36.39C162.705 36.77 162.895 37.26 162.895 37.79C162.895 39.01 161.905 40 160.685 40H158.495C157.275 40 156.285 39.01 156.285 37.79H157.535C157.535 38.32 157.965 38.75 158.495 38.75H160.685C161.215 38.75 161.655 38.32 161.655 37.79C161.655 37.26 161.215 36.83 160.685 36.83H158.165C157.655 36.83 157.195 36.63 156.855 36.3C156.765 36.21 156.685 36.11 156.615 36C156.405 35.7 156.285 35.33 156.285 34.93V34.89C156.285 33.85 157.125 33 158.165 33H161.005C162.045 33 162.895 33.85 162.895 34.89V34.93Z" fill="#AE3746"/>
<path d="M150.154 33L151.404 33.01V40.01L150.154 39.05L145.654 35.58V40.01H144.404V33.03L145.654 33.99L150.154 37.46V33Z" fill="#AE3746"/>
<path d="M140.645 33C142.575 33 144.145 34.57 144.145 36.5C144.145 38.43 142.575 40 140.645 40C138.715 40 137.145 38.43 137.145 36.5C137.145 34.57 138.715 33 140.645 33ZM140.645 38.75C141.885 38.75 142.895 37.74 142.895 36.5C142.895 35.26 141.885 34.25 140.645 34.25C139.405 34.25 138.395 35.26 138.395 36.5C138.395 37.74 139.405 38.75 140.645 38.75Z" fill="#AE3746"/>
<path d="M136.889 40H135.639V33H136.889V40Z" fill="#AE3746"/>
<path d="M128.141 33.0098H135.131V34.2598H132.261V40.0098H131.011V34.2598H128.141V33.0098Z" fill="#AE3746"/>
<path d="M124.14 34.25C122.9 34.25 121.89 35.26 121.89 36.5C121.89 37.74 122.9 38.75 124.14 38.75H127.64V40H124.14C122.21 40 120.64 38.43 120.64 36.5C120.64 34.57 122.21 33 124.14 33H127.64V34.25H124.14Z" fill="#AE3746"/>
<path d="M115.679 34.25C115.329 34.25 115.039 34.54 115.039 34.89V35.54H119.539V36.79H115.039V38.11C115.039 38.46 115.329 38.75 115.679 38.75H120.789V40H115.679C114.639 40 113.799 39.15 113.799 38.11V34.89C113.799 33.85 114.639 33 115.679 33H120.789V34.25H115.679Z" fill="#AE3746"/>
<path d="M106.291 33.0098H113.281V34.2598H110.411V40.0098H109.161V34.2598H106.291V33.0098Z" fill="#AE3746"/>
<path d="M100.683 34.25C100.333 34.25 100.043 34.54 100.043 34.89V35.54H104.543V36.79H100.043V38.11C100.043 38.46 100.333 38.75 100.683 38.75H105.793V40H100.683C99.643 40 98.803 39.15 98.803 38.11V34.89C98.803 33.85 99.643 33 100.683 33H105.793V34.25H100.683Z" fill="#AE3746"/>
<path d="M94.7949 33L94.7849 33.01C96.7149 33.01 98.2849 34.57 98.2849 36.5C98.2849 37.36 97.9749 38.15 97.4549 38.76C97.3949 38.83 97.3249 38.9 97.2549 38.97C96.6249 39.61 95.7549 40 94.7949 40H91.2949V33H94.7949ZM94.7849 38.76C96.0249 38.76 97.0349 37.75 97.0349 36.51C97.0349 35.27 96.0249 34.26 94.7849 34.26H92.5349V38.76H94.7849Z" fill="#AE3746"/>
<path d="M84.8438 32.9902H86.4138L83.7038 36.5002L83.5538 36.6902V39.9902H82.3038V36.7102L82.1338 36.5002L79.4238 32.9902H81.0038L82.9238 35.4802L84.8438 32.9902ZM79.4138 40.0202V40.0002H79.4338L79.4138 40.0202ZM86.4138 40.0202L86.4038 40.0002H86.4138V40.0202Z" fill="#AE3746"/>
<path d="M77.4535 38.7498L81.1235 38.7598V40.0098H77.5735C77.2235 40.0098 76.8935 39.9298 76.5935 39.7798C76.1535 39.5598 75.7935 39.1998 75.5835 38.7598C75.4335 38.4598 75.3535 38.1298 75.3535 37.7798V33.0098H76.6035V37.8998C76.6635 38.3398 77.0135 38.6898 77.4535 38.7498Z" fill="#AE3746"/>
<path d="M73.1988 36.77L74.1988 38.77L74.8388 40.02H73.4388L72.7988 38.77L72.1288 37.46L72.0988 37.4C71.8788 37.04 71.4888 36.8 71.0388 36.8H69.7888V40.02H68.5388V33.02H72.9588C73.4788 33.02 73.9488 33.23 74.2888 33.57C74.6288 33.91 74.8388 34.38 74.8388 34.9C74.8388 35.66 74.3888 36.32 73.7388 36.62C73.5688 36.7 73.3888 36.75 73.1988 36.77ZM69.7888 35.56L72.9588 35.55C73.0488 35.55 73.1388 35.53 73.2188 35.49C73.4488 35.39 73.5988 35.16 73.5988 34.91C73.5988 34.68 73.4788 34.52 73.4088 34.45C73.3288 34.37 73.1788 34.27 72.9588 34.27H69.7888V35.56Z" fill="#AE3746"/>
<path d="M67.8051 38.75L68.4451 40H67.0451L66.4051 38.75L64.8751 35.75L63.3451 38.75L62.7051 40H61.3051L61.9451 38.75L64.8751 33L67.8051 38.75Z" fill="#AE3746"/>
<path d="M56.097 34.25C55.747 34.25 55.457 34.54 55.457 34.89V35.54H59.957V36.79H55.457V38.11C55.457 38.46 55.747 38.75 56.097 38.75H61.207V40H56.097C55.057 40 54.217 39.15 54.217 38.11V34.89C54.217 33.85 55.057 33 56.097 33H61.207V34.25H56.097Z" fill="#AE3746"/>
<path d="M44.2259 34.25C43.8759 34.25 43.5859 34.54 43.5859 34.89V35.54H48.0859V36.79H43.5859V38.11C43.5859 38.46 43.8759 38.75 44.2259 38.75H49.3359V40H44.2259C43.1859 40 42.3459 39.15 42.3459 38.11V34.89C42.3459 33.85 43.1859 33 44.2259 33H49.3359V34.25H44.2259Z" fill="#AE3746"/>
<path d="M40.1812 36.77L41.1812 38.77L41.8212 40.02H40.4212L39.7812 38.77L39.1112 37.46L39.0812 37.4C38.8612 37.04 38.4712 36.8 38.0212 36.8H36.7712V40.02H35.5212V33.02H39.9412C40.4612 33.02 40.9312 33.23 41.2712 33.57C41.6112 33.91 41.8212 34.38 41.8212 34.9C41.8212 35.66 41.3712 36.32 40.7212 36.62C40.5512 36.7 40.3712 36.75 40.1812 36.77ZM36.7712 35.56L39.9412 35.55C40.0312 35.55 40.1212 35.53 40.2012 35.49C40.4312 35.39 40.5812 35.16 40.5812 34.91C40.5812 34.68 40.4612 34.52 40.3912 34.45C40.3112 34.37 40.1612 34.27 39.9412 34.27H36.7712V35.56Z" fill="#AE3746"/>
<path d="M35.0352 40H33.7852V33H35.0352V40Z" fill="#AE3746"/>
<path d="M28.1771 33.0002L33.2971 32.9902V34.2402H28.1871C27.8371 34.2402 27.5471 34.5302 27.5471 34.8802V35.5302H32.0471V36.7802H27.5371V39.9902H26.2971V34.8902C26.2971 33.8502 27.1371 33.0002 28.1771 33.0002Z" fill="#AE3746"/>
<path d="M22.2891 33L22.2791 33.01C24.2091 33.01 25.7791 34.57 25.7791 36.5C25.7791 37.36 25.4691 38.15 24.9491 38.76C24.8891 38.83 24.8191 38.9 24.7491 38.97C24.1191 39.61 23.2491 40 22.2891 40H18.7891V33H22.2891ZM22.2791 38.76C23.5191 38.76 24.5291 37.75 24.5291 36.51C24.5291 35.27 23.5191 34.26 22.2791 34.26H20.0291V38.76H22.2791Z" fill="#AE3746"/>
<path d="M14.6215 38.7498L18.2915 38.7598V40.0098H14.7415C14.3915 40.0098 14.0615 39.9298 13.7615 39.7798C13.3215 39.5598 12.9615 39.1998 12.7515 38.7598C12.6015 38.4598 12.5215 38.1298 12.5215 37.7798V33.0098H13.7715V37.8998C13.8315 38.3398 14.1815 38.6898 14.6215 38.7498Z" fill="#AE3746"/>
<path d="M12.0254 40H10.7754V33H12.0254V40Z" fill="#AE3746"/>
<path d="M10.28 33L8.64 38.49L8.19 40L7.27 38.72L5.88 36.81L4.5 38.72L3.58 39.99L3.13 38.49L1.5 33H2.8L4.06 37.22L5.12 35.75L5.32 35.47L5.89 34.69L6.46 35.47L6.66 35.75L7.72 37.22L8.98 33H10.28Z" fill="#AE3746"/>
</svg>
