<svg xmlns="http://www.w3.org/2000/svg" width="22.922" height="26.197" viewBox="0 0 22.922 26.197">
  <path id="logout_4_" data-name="logout (4)" d="M17.373,17.192v6.549A2.459,2.459,0,0,1,14.917,26.2H3.456A2.459,2.459,0,0,1,1,23.741V2.456A2.459,2.459,0,0,1,3.456,0H14.917a2.459,2.459,0,0,1,2.456,2.456V9.005a.819.819,0,1,1-1.637,0V2.456a.82.82,0,0,0-.819-.819H3.456a.82.82,0,0,0-.819.819V23.741a.82.82,0,0,0,.819.819H14.917a.82.82,0,0,0,.819-.819V17.192a.819.819,0,1,1,1.637,0Zm6.151-5.164L20.448,8.47A.819.819,0,1,0,19.21,9.542l2.369,2.738H10.005a.819.819,0,0,0,0,1.637H21.578L19.21,16.656a.818.818,0,1,0,1.238,1.071l3.078-3.56a1.64,1.64,0,0,0,0-2.14Z" transform="translate(-1)" fill="#983539"/>
</svg>
