<svg xmlns="http://www.w3.org/2000/svg" width="29.998" height="25.512" viewBox="0 0 29.998 25.512">
  <g id="cctv-camera_2_" data-name="cctv-camera (2)" transform="translate(0.15 0.211)">
    <path id="패스_26717" data-name="패스 26717" d="M159.2,173.078a1.038,1.038,0,1,0,1.038,1.038A1.039,1.039,0,0,0,159.2,173.078Zm0,1.337a.3.3,0,1,1,.3-.3A.3.3,0,0,1,159.2,174.415Z" transform="translate(-139.192 -154.629)" fill="#983539" stroke="#983539" stroke-width="0.3"/>
    <path id="패스_26718" data-name="패스 26718" d="M46.069,49.322H44.245a1.857,1.857,0,0,0-1.855,1.855v1.678H38.5l-.46-1.263.738-2.145.68-.245.021-.008a4.243,4.243,0,0,0,2.3-4.03l.8-.292a1.758,1.758,0,0,0,1.07-2.211c-.043-.132-.089-.264-.136-.393-1.743-4.788-4.963-7.421-8.014-6.551l-.025.008L20.4,41.222l-2.339.77-.011,0A1.853,1.853,0,0,0,16.8,43.321c-.292,1.2.453,3.07,2.212,5.546.339.477.684.932,1.01,1.344a7.687,7.687,0,0,0,2.369,3.163,4.063,4.063,0,0,0,2.41.9,7.322,7.322,0,0,0,1.328-.267l5.443-1.962,1.97,1.185L34.551,56a2.392,2.392,0,0,0,3.573,1.175h4.266v1.678A1.857,1.857,0,0,0,44.246,60.7h1.824a.369.369,0,0,0,.369-.369V49.691a.369.369,0,0,0-.369-.369Zm-10.347-12.9c2.652-.746,5.506,1.7,7.106,6.1.044.121.087.246.128.37a1.024,1.024,0,0,1-.621,1.288l-14.4,5.241a1.717,1.717,0,0,1-2.171-.943,19.413,19.413,0,0,0-1.578-3.109A8.149,8.149,0,0,0,19.87,42.2ZM25.548,50.332c-.083.638-.329,1.076-.676,1.2-.7.255-1.953-.766-2.634-2.636s-.376-3.458.323-3.712a.666.666,0,0,1,.229-.039.983.983,0,0,1,.294.049q.262.295.518.625a17,17,0,0,1,1.481,2.943,2.446,2.446,0,0,0,.482.735,4.2,4.2,0,0,1-.019.833Zm-6.068-4.963a7.194,7.194,0,0,0-.053,2.8c-1.189-1.721-2.173-3.579-1.907-4.674a1.015,1.015,0,0,1,.345-.564,4,4,0,0,1,2.753.318,4.158,4.158,0,0,0-1.138,2.121Zm7.756,5.813a2.893,2.893,0,0,1-1.682,2.223,2.893,2.893,0,0,1-2.718-.622,7.123,7.123,0,0,1-2.294-3.269c-.892-2.451-.532-4.9.763-5.885a7.815,7.815,0,0,1,1.072.841c-.023.007-.046.013-.068.022-1.218.443-1.554,2.489-.764,4.658.688,1.891,1.972,3.161,3.1,3.161a1.4,1.4,0,0,0,.482-.084,2.026,2.026,0,0,0,1.155-1.8c.017-.127.027-.258.032-.393a2.459,2.459,0,0,0,1.033.228h.024A5.618,5.618,0,0,1,27.235,51.182Zm.148,1.589a4.728,4.728,0,0,0,.57-1.421,6.429,6.429,0,0,0,.158-1.211l.075-.026L41.028,45.44a5.272,5.272,0,0,1-.118.789,3.135,3.135,0,0,1-1.71,2.283Zm9.983,3.961a1.657,1.657,0,0,1-2.122-.99l-1.051-2.889a.369.369,0,0,0-.157-.19l-1.567-.942,5.421-1.954L37.3,51.476a.369.369,0,0,0,0,.246l1.051,2.889a1.658,1.658,0,0,1-.99,2.122Zm5.024-.3H38.836a2.39,2.39,0,0,0,.213-2.074l-.278-.765H42.39Zm3.31,3.533H44.245a1.118,1.118,0,0,1-1.117-1.117V51.177a1.118,1.118,0,0,1,1.117-1.117H45.7Z" transform="translate(-16.74 -35.552)" fill="#983539" stroke="#983539" stroke-width="0.3"/>
    <path id="패스_26719" data-name="패스 26719" d="M62.971,121.544c-.286-.785-.885-1.237-1.4-1.051s-.679.917-.394,1.7a2.056,2.056,0,0,0,.525.818.963.963,0,0,0,.634.274.688.688,0,0,0,.236-.041c.51-.186.679-.917.394-1.7Zm-.648,1a1.317,1.317,0,0,1-.492-1.353,1.317,1.317,0,0,1,.492,1.353Z" transform="translate(-55.1 -109.062)" fill="#983539" stroke="#983539" stroke-width="0.3"/>
  </g>
</svg>
