<svg id="Layer_25" data-name="Layer 25" xmlns="http://www.w3.org/2000/svg" width="30.826" height="30.825" viewBox="0 0 30.826 30.825">
  <path id="패스_26741" data-name="패스 26741" d="M35.709,28.854a6.854,6.854,0,1,0-6.854,6.854,6.854,6.854,0,0,0,6.854-6.854ZM28.854,34.73a5.875,5.875,0,1,1,5.875-5.875,5.875,5.875,0,0,1-5.875,5.875Z" transform="translate(-13.442 -13.442)" fill="#983539"/>
  <path id="패스_26742" data-name="패스 26742" d="M20.782,11.4a.489.489,0,1,0-.179-.962A12.776,12.776,0,0,0,10.439,20.6a.489.489,0,0,0,.392.571.48.48,0,0,0,.09.008.489.489,0,0,0,.481-.4A11.792,11.792,0,0,1,20.782,11.4Z" transform="translate(-7.537 -7.537)" fill="#983539"/>
  <path id="패스_26743" data-name="패스 26743" d="M24.336,17.3a.49.49,0,0,0-.178-.963,9.808,9.808,0,0,0-7.82,7.82.49.49,0,0,0,.393.57.5.5,0,0,0,.089.008.49.49,0,0,0,.481-.4A8.823,8.823,0,0,1,24.336,17.3Z" transform="translate(-10.548 -10.548)" fill="#983539"/>
  <path id="패스_26744" data-name="패스 26744" d="M17.227,5.491a.49.49,0,1,0-.18-.962A15.754,15.754,0,0,0,4.528,17.047a.49.49,0,1,0,.962.18A14.769,14.769,0,0,1,17.227,5.491Z" transform="translate(-4.52 -4.52)" fill="#983539"/>
  <path id="패스_26745" data-name="패스 26745" d="M46.9,39.078a.49.49,0,0,0-.963-.178A8.823,8.823,0,0,1,38.9,45.935a.49.49,0,0,0,.088.971.5.5,0,0,0,.089-.008,9.808,9.808,0,0,0,7.82-7.82Z" transform="translate(-21.863 -21.863)" fill="#983539"/>
  <path id="패스_26746" data-name="패스 26746" d="M50.354,40.189a.49.49,0,1,0-.963-.179,11.792,11.792,0,0,1-9.38,9.381.49.49,0,0,0,.089.971.48.48,0,0,0,.09-.008A12.777,12.777,0,0,0,50.354,40.189Z" transform="translate(-22.43 -22.43)" fill="#983539"/>
  <path id="패스_26747" data-name="패스 26747" d="M53.417,40.718a.487.487,0,0,0-.571.391A14.77,14.77,0,0,1,41.11,52.845a.49.49,0,0,0,.18.962A15.756,15.756,0,0,0,53.809,41.289a.49.49,0,0,0-.392-.571Z" transform="translate(-22.991 -22.991)" fill="#983539"/>
  <path id="패스_26748" data-name="패스 26748" d="M33.958,32a1.958,1.958,0,1,0,1.958,1.958A1.958,1.958,0,0,0,33.958,32Zm0,2.938a.979.979,0,1,1,.979-.979A.979.979,0,0,1,33.958,34.938Z" transform="translate(-18.546 -18.546)" fill="#983539"/>
</svg>
