<svg xmlns="http://www.w3.org/2000/svg" width="27.501" height="26.497" viewBox="0 0 27.501 26.497">
  <g id="server" transform="translate(0.15 0.15)">
    <path id="패스_26757" data-name="패스 26757" d="M27.2,15.778V12.4a2.952,2.952,0,0,0-2.948-2.948H2.948A2.952,2.952,0,0,0,0,12.4v3.382a2.949,2.949,0,0,0,1.452,2.539A2.949,2.949,0,0,0,0,20.856v3.382a2.949,2.949,0,0,0,1.452,2.539A2.949,2.949,0,0,0,0,29.315V32.7a2.952,2.952,0,0,0,2.948,2.948h21.3A2.952,2.952,0,0,0,27.2,32.7V29.315a2.949,2.949,0,0,0-1.452-2.539A2.949,2.949,0,0,0,27.2,24.237V20.856a2.949,2.949,0,0,0-1.452-2.539A2.949,2.949,0,0,0,27.2,15.778Zm-.824,13.537V32.7a2.127,2.127,0,0,1-2.124,2.124H2.948A2.127,2.127,0,0,1,.824,32.7V29.315a2.127,2.127,0,0,1,2.124-2.124h21.3A2.126,2.126,0,0,1,26.377,29.315Zm0-8.459v3.382a2.127,2.127,0,0,1-2.124,2.124H2.948A2.127,2.127,0,0,1,.824,24.237V20.856a2.127,2.127,0,0,1,2.124-2.124h21.3A2.126,2.126,0,0,1,26.377,20.856ZM24.253,17.9H2.948A2.127,2.127,0,0,1,.824,15.778V12.4a2.127,2.127,0,0,1,2.124-2.124h21.3A2.127,2.127,0,0,1,26.377,12.4v3.382A2.126,2.126,0,0,1,24.253,17.9Z" transform="translate(0 -9.448)" fill="#983539" stroke="#983539" stroke-width="0.3"/>
    <path id="패스_26758" data-name="패스 26758" d="M66.823,76.963a1.68,1.68,0,1,1,1.68-1.68A1.682,1.682,0,0,1,66.823,76.963Zm0-2.536a.856.856,0,1,0,.856.856A.857.857,0,0,0,66.823,74.427Zm16.916,1.268H73.594a.412.412,0,0,1,0-.824H83.739a.412.412,0,1,1,0,.824ZM66.823,68.5a1.68,1.68,0,1,1,1.68-1.68A1.682,1.682,0,0,1,66.823,68.5Zm0-2.536a.856.856,0,1,0,.856.856A.857.857,0,0,0,66.823,65.967Zm16.916,1.268H73.594a.412.412,0,0,1,0-.824H83.739a.412.412,0,1,1,0,.824ZM66.823,85.422a1.68,1.68,0,1,1,1.68-1.68A1.682,1.682,0,0,1,66.823,85.422Zm0-2.536a.856.856,0,1,0,.856.856A.857.857,0,0,0,66.823,82.886Zm16.916,1.268H73.594a.412.412,0,0,1,0-.824H83.739a.412.412,0,1,1,0,.824Z" transform="translate(-61.682 -62.184)" fill="#983539" stroke="#983539" stroke-width="0.3"/>
  </g>
</svg>
