<svg id="bell" xmlns="http://www.w3.org/2000/svg" width="25.833" height="31" viewBox="0 0 25.833 31">
  <g id="그룹_30724" data-name="그룹 30724" transform="translate(10.333)">
    <path id="패스_26749" data-name="패스 26749" d="M14.521,5.4a.646.646,0,0,1-.646-.646V2.583a1.292,1.292,0,1,0-2.583,0v2.17a.646.646,0,0,1-1.292,0V2.583a2.583,2.583,0,1,1,5.167,0v2.17A.645.645,0,0,1,14.521,5.4Z" transform="translate(-10 0)" fill="#5d5d5d"/>
  </g>
  <g id="그룹_30725" data-name="그룹 30725" transform="translate(8.396 25.833)">
    <path id="패스_26750" data-name="패스 26750" d="M13.021,25.167A4.526,4.526,0,0,1,8.5,20.646a.646.646,0,1,1,1.292,0,3.229,3.229,0,0,0,6.458,0,.646.646,0,1,1,1.292,0A4.526,4.526,0,0,1,13.021,25.167Z" transform="translate(-8.5 -20)" fill="#5d5d5d"/>
  </g>
  <g id="그룹_30726" data-name="그룹 30726" transform="translate(0 3.875)">
    <path id="패스_26751" data-name="패스 26751" d="M25.9,26.25H3.937a1.938,1.938,0,0,1-1.259-3.41,8.98,8.98,0,0,0,3.2-6.874V12.042a9.042,9.042,0,0,1,18.083,0v3.924a8.97,8.97,0,0,0,3.187,6.865A1.938,1.938,0,0,1,25.9,26.25ZM14.917,4.292a7.758,7.758,0,0,0-7.75,7.75v3.924a10.262,10.262,0,0,1-3.644,7.852.646.646,0,0,0,.415,1.141H25.9a.646.646,0,0,0,.42-1.137,10.27,10.27,0,0,1-3.649-7.856V12.042a7.758,7.758,0,0,0-7.75-7.75Z" transform="translate(-2 -3)" fill="#5d5d5d"/>
  </g>
</svg>
