<svg xmlns="http://www.w3.org/2000/svg" width="24.281" height="24.888" viewBox="0 0 24.281 24.888">
  <path id="filter_1_" data-name="filter (1)" d="M23.731,0H1.541A1.042,1.042,0,0,0,.612.566a1.057,1.057,0,0,0,.082,1.1L8.824,13.118l.008.012a2.323,2.323,0,0,1,.456,1.378v9.336a1.038,1.038,0,0,0,1.038,1.045,1.069,1.069,0,0,0,.409-.082L15.3,23.064a.989.989,0,0,0,.681-.976V14.507a2.323,2.323,0,0,1,.456-1.378l.008-.012L24.578,1.665a1.056,1.056,0,0,0,.082-1.1A1.042,1.042,0,0,0,23.731,0ZM15.422,12.381a3.6,3.6,0,0,0-.7,2.127v7.427l-4.169,1.59V14.507a3.6,3.6,0,0,0-.7-2.127L1.958,1.263H23.314Zm0,0" transform="translate(-0.496 0)" fill="#5d5d5d"/>
</svg>
