<svg id="guarantee" xmlns="http://www.w3.org/2000/svg" width="24.934" height="29.834" viewBox="0 0 24.934 29.834">
  <g id="Icon">
    <path id="패스_26754" data-name="패스 26754" d="M365.934,56.741a3.282,3.282,0,0,0-1.948-3L354.8,49.66a3.285,3.285,0,0,0-2.665,0l-9.186,4.083a3.282,3.282,0,0,0-1.948,3V66.846a11.013,11.013,0,0,0,4.842,8.9,22.645,22.645,0,0,0,6.71,3.339l.01,0a3.274,3.274,0,0,0,1.808,0l.012,0a22.648,22.648,0,0,0,6.709-3.34,11.013,11.013,0,0,0,4.842-8.9Zm-1.312,0V66.846a9.734,9.734,0,0,1-4.321,7.848,21.223,21.223,0,0,1-6.3,3.131,1.964,1.964,0,0,1-1.07,0,21.226,21.226,0,0,1-6.3-3.131,9.734,9.734,0,0,1-4.321-7.848V56.741a1.968,1.968,0,0,1,1.169-1.8l9.186-4.083a1.966,1.966,0,0,1,1.6,0l9.186,4.083a1.968,1.968,0,0,1,1.169,1.8Z" transform="translate(-341 -49.377)" fill="#5d5d5d" fill-rule="evenodd"/>
    <path id="패스_26755" data-name="패스 26755" d="M356.256,61.223a7.145,7.145,0,1,0,7.145,7.144A7.148,7.148,0,0,0,356.256,61.223Zm0,1.312a5.832,5.832,0,1,1-5.833,5.832A5.835,5.835,0,0,1,356.256,62.535Z" transform="translate(-343.789 -53.45)" fill="#5d5d5d" fill-rule="evenodd"/>
    <g id="그룹_30727" data-name="그룹 30727" transform="translate(8.726 14.937) rotate(-45)">
      <path id="패스_26756" data-name="패스 26756" d="M0,.656V3.281a.656.656,0,0,0,.656.656H5.905a.656.656,0,0,0,0-1.312H1.312V.656A.656.656,0,0,0,0,.656Z" fill="#5d5d5d" fill-rule="evenodd"/>
    </g>
  </g>
</svg>
