<?xml version="1.0" encoding="utf-8"?>
<!-- Generator: Adobe Illustrator 25.4.1, SVG Export Plug-In . SVG Version: 6.00 Build 0)  -->
<svg version="1.1" id="Layer_1" xmlns="http://www.w3.org/2000/svg" xmlns:xlink="http://www.w3.org/1999/xlink" x="0px" y="0px"
	 viewBox="0 0 8.8 8.8" style="enable-background:new 0 0 8.8 8.8;" xml:space="preserve">
<style type="text/css">
	.st0{fill:#B73E43;}
</style>
<path class="st0" d="M7,3.9L4.7,0.2C4.6,0,4.3,0,4.2,0.1c0,0-0.1,0.1-0.1,0.1L1.8,3.9C1.4,4.4,1.2,5,1.2,5.6c0,1.7,1.4,3.2,3.2,3.2
	s3.2-1.4,3.2-3.2C7.5,5,7.3,4.4,7,3.9 M4.4,8.1C3,8.1,1.9,7,1.9,5.6c0-0.5,0.2-1,0.4-1.4l0.3-0.5l3.5,3.5C5.8,7.8,5.1,8.1,4.4,8.1"
	/>
</svg>
