<svg xmlns="http://www.w3.org/2000/svg" width="9.492" height="8.775" viewBox="0 0 9.492 8.775">
  <g id="그룹_32759" data-name="그룹 32759" transform="translate(-1147 -479)">
    <g id="그룹_608" data-name="그룹 608" transform="translate(-211.142 353.774)">
      <path id="패스_1721" data-name="패스 1721" d="M1453.224,144.066a5.62,5.62,0,0,1,4,3.3c-1.793-.475-2.278.211-2.278.211A4.96,4.96,0,0,0,1453.224,144.066Z" transform="translate(-89.587 -17.751)" fill="#b7b7b7"/>
      <path id="패스_1722" data-name="패스 1722" d="M1406.564,144.066a4.5,4.5,0,0,1,2.067,3.512,3.973,3.973,0,0,0-4.134,0A4.5,4.5,0,0,1,1406.564,144.066Z" transform="translate(-43.676 -17.751)" fill="#b7b7b7"/>
      <path id="패스_1723" data-name="패스 1723" d="M1362.139,144.066a4.96,4.96,0,0,0-1.719,3.512s-.485-.686-2.278-.211A5.619,5.619,0,0,1,1362.139,144.066Z" transform="translate(0 -17.751)" fill="#b7b7b7"/>
      <path id="패스_1724" data-name="패스 1724" d="M1437.358,197v3.75a.492.492,0,0,0,.526.491.5.5,0,0,0,.458-.508v-.124a.19.19,0,1,1,.38,0v.116a.889.889,0,0,1-.828.9.873.873,0,0,1-.916-.871V197c.063,0,.127-.006.19-.006S1437.295,196.994,1437.358,197Z" transform="translate(-74.28 -67.617)" fill="#b7b7b7"/>
      <path id="패스_1725" data-name="패스 1725" d="M1436.982,125.98a.271.271,0,0,1,.04-.142.271.271,0,0,0,.039-.126l.024-.4a.087.087,0,0,1,.174,0l.024.4a.273.273,0,0,0,.039.126.272.272,0,0,1,.04.142v.158h-.38Z" transform="translate(-74.284)" fill="#b7b7b7"/>
    </g>
  </g>
</svg>
