<?xml version="1.0" encoding="utf-8"?>
<!-- Generator: Adobe Illustrator 25.4.1, SVG Export Plug-In . SVG Version: 6.00 Build 0)  -->
<svg version="1.1" id="Layer_1" xmlns="http://www.w3.org/2000/svg" xmlns:xlink="http://www.w3.org/1999/xlink" x="0px" y="0px"
	 viewBox="0 0 8.8 8.8" style="enable-background:new 0 0 8.8 8.8;" xml:space="preserve">
<style type="text/css">
	.st0{fill:#B73E43;}
</style>
<path class="st0" d="M8.1,6.1L7.5,5.7c0.1-0.1,0.2-0.2,0.4-0.3C8.1,5.3,8.1,5.1,8,4.9C7.9,4.7,7.7,4.6,7.5,4.7
	C7.2,4.9,7,5.1,6.8,5.3L5.2,4.4l1.6-0.9C7,3.7,7.2,3.9,7.5,4c0.2,0.1,0.4,0,0.5-0.2s0-0.4-0.2-0.5c0,0,0,0,0,0
	C7.7,3.3,7.6,3.2,7.5,3l0.6-0.4c0.2-0.1,0.3-0.3,0.2-0.5C8.2,1.9,7.9,1.9,7.7,2c0,0,0,0,0,0L7.1,2.4C7.1,2.2,7,2,7,1.9
	c0-0.2-0.2-0.4-0.4-0.4c0,0,0,0,0,0h0c-0.2,0-0.4,0.2-0.4,0.4c0,0.3,0,0.6,0.2,0.9L4.8,3.7V1.8c0.3-0.1,0.6-0.2,0.9-0.3
	C5.8,1.4,5.9,1.2,5.8,1C5.7,0.8,5.4,0.7,5.2,0.8C5.1,0.9,4.9,1,4.8,1V0.4C4.8,0.2,4.6,0,4.4,0C4.2,0,4,0.2,4,0.4V1
	C3.8,1,3.7,0.9,3.5,0.8C3.3,0.7,3.1,0.8,3,1C2.9,1.2,2.9,1.4,3.1,1.5C3.4,1.7,3.7,1.8,4,1.8v1.9L2.4,2.8c0.1-0.3,0.2-0.6,0.2-0.9
	c0-0.2-0.2-0.4-0.4-0.4h0c-0.2,0-0.4,0.2-0.4,0.4c0,0,0,0,0,0c0,0.2,0,0.3-0.1,0.5L1,2C0.8,1.9,0.6,1.9,0.5,2.1
	C0.4,2.3,0.4,2.6,0.6,2.7c0,0,0,0,0,0L1.3,3C1.1,3.2,1,3.3,0.9,3.3C0.7,3.4,0.6,3.7,0.7,3.9C0.8,4.1,1.1,4.2,1.3,4c0,0,0,0,0,0
	C1.5,3.9,1.8,3.7,2,3.5l1.6,0.9L2,5.3C1.8,5.1,1.5,4.9,1.3,4.7c-0.2-0.1-0.4,0-0.5,0.2c-0.1,0.2,0,0.4,0.2,0.5c0,0,0,0,0,0
	C1,5.5,1.1,5.6,1.3,5.7L0.6,6.1C0.4,6.2,0.4,6.4,0.5,6.6C0.6,6.8,0.8,6.9,1,6.8c0,0,0,0,0,0l0.6-0.4c0,0.2,0.1,0.3,0.1,0.5
	c0,0.2,0.2,0.4,0.4,0.4h0c0.2,0,0.4-0.2,0.4-0.4c0-0.3,0-0.6-0.2-0.9L4,5.1v1.9C3.7,7,3.4,7.1,3.1,7.3C2.9,7.4,2.9,7.6,3,7.8
	C3.1,8,3.3,8.1,3.5,7.9l0,0C3.7,7.9,3.8,7.8,4,7.8v0.6c0,0.2,0.2,0.4,0.4,0.4c0.2,0,0.4-0.2,0.4-0.4V7.8c0.2,0,0.3,0.1,0.4,0.2
	C5.4,8.1,5.7,8,5.8,7.8c0.1-0.2,0.1-0.4-0.1-0.6C5.4,7.1,5.1,7,4.8,6.9V5.1L6.4,6C6.3,6.3,6.2,6.6,6.2,6.9c0,0.2,0.2,0.4,0.4,0.4h0
	C6.9,7.3,7,7.1,7,6.9c0,0,0,0,0,0c0-0.2,0-0.3,0.1-0.5l0.6,0.4c0.2,0.1,0.4,0.1,0.6-0.1S8.3,6.2,8.1,6.1C8.1,6.1,8.1,6.1,8.1,6.1"/>
</svg>
