<svg xmlns="http://www.w3.org/2000/svg" width="8.775" height="8.776" viewBox="0 0 8.775 8.776">
  <g id="그룹_32766" data-name="그룹 32766" transform="translate(-1072 -403)">
    <path id="패스_1717" data-name="패스 1717" d="M134.968,124.1a3.114,3.114,0,0,0-3.568-2.826,1.983,1.983,0,0,1,.508-.278,2.576,2.576,0,0,1,1.7.059,5.654,5.654,0,0,1,1.1.568.133.133,0,0,0,.158-.215c-.2-.166-.616-.523-.669-.561a3.113,3.113,0,0,0-4.521.525,1.97,1.97,0,0,1,.162-.556,2.578,2.578,0,0,1,1.242-1.158,5.642,5.642,0,0,1,1.183-.379.134.134,0,0,0-.04-.264c-.256.021-.806.066-.87.077a3.114,3.114,0,0,0-2.826,3.568,2.005,2.005,0,0,1-.278-.508,2.576,2.576,0,0,1,.059-1.7,5.629,5.629,0,0,1,.569-1.1.134.134,0,0,0-.215-.158c-.166.2-.523.617-.56.67a3.113,3.113,0,0,0,.525,4.521,1.985,1.985,0,0,1-.556-.162,2.576,2.576,0,0,1-1.158-1.242,5.6,5.6,0,0,1-.379-1.183.134.134,0,0,0-.263.04c.021.256.066.806.077.87a3.113,3.113,0,0,0,3.568,2.826,1.991,1.991,0,0,1-.508.278,2.577,2.577,0,0,1-1.7-.06,5.6,5.6,0,0,1-1.1-.568.134.134,0,0,0-.2.113.132.132,0,0,0,.047.1c.2.167.616.523.669.561a3.114,3.114,0,0,0,4.521-.525,1.994,1.994,0,0,1-.162.556,2.579,2.579,0,0,1-1.242,1.158,5.6,5.6,0,0,1-1.183.379.134.134,0,0,0,.04.263c.256-.021.806-.066.87-.077a3.113,3.113,0,0,0,2.826-3.568,1.984,1.984,0,0,1,.278.508,2.576,2.576,0,0,1-.059,1.7,5.633,5.633,0,0,1-.569,1.1.134.134,0,0,0,.215.158c.166-.2.523-.616.56-.669a3.113,3.113,0,0,0-.525-4.521,1.972,1.972,0,0,1,.556.162,2.575,2.575,0,0,1,1.158,1.242,5.607,5.607,0,0,1,.379,1.183.134.134,0,0,0,.263-.04C135.024,124.718,134.979,124.169,134.968,124.1Z" transform="translate(945.73 283.979)" fill="#b73e43"/>
  </g>
</svg>
