<?xml version="1.0" encoding="utf-8"?>
<!-- Generator: Adobe Illustrator 25.4.1, SVG Export Plug-In . SVG Version: 6.00 Build 0)  -->
<svg version="1.1" id="Layer_1" xmlns="http://www.w3.org/2000/svg" xmlns:xlink="http://www.w3.org/1999/xlink" x="0px" y="0px"
	 viewBox="0 0 8.8 8.8" style="enable-background:new 0 0 8.8 8.8;" xml:space="preserve">
<style type="text/css">
	.st0{fill:#B7B7B7;}
</style>
<path class="st0" d="M7,7.2c0,0.5-0.4,0.9-0.9,0.9S5.2,7.8,5.2,7.2c0-0.6,0.9-1.7,0.9-1.7S7,6.6,7,7.2 M1.2,6.7
	C1.1,6.5,1.3,6.3,1.5,6.2L2.4,6L1.7,5.3c-0.2-0.2-0.2-0.4,0-0.6c0.2-0.2,0.4-0.2,0.6,0L3,5.4l0.2-0.9c0.1-0.2,0.3-0.4,0.5-0.3
	C3.9,4.3,4.1,4.5,4,4.7L3.8,5.6l0.9-0.2c0.2-0.1,0.4,0,0.5,0.3c0,0,0,0,0,0c0.1,0.2-0.1,0.4-0.3,0.5L4,6.4l0.7,0.7
	c0.2,0.2,0.2,0.4,0,0.6S4.2,7.8,4,7.6L3.4,7L3.1,7.9C3.1,8.1,2.9,8.2,2.6,8.2C2.4,8.1,2.3,7.9,2.4,7.7l0.2-0.9L1.7,7
	C1.5,7.1,1.3,6.9,1.2,6.7 M0,4.2c0-1.1,0.9-2,2-2c0.4-0.9,1.3-1.6,2.4-1.6C5.8,0.6,6.9,1.7,7,3l0.2,0c0.9,0,1.6,0.7,1.6,1.6
	S8.1,6.2,7.2,6.2C7,6.2,6.8,6,6.8,5.8S7,5.4,7.2,5.4C7.6,5.4,8,5,8,4.6S7.6,3.8,7.2,3.8H6.4V3.4c0-1.1-0.9-2-2-2c-1,0-1.8,0.7-2,1.7
	C2.3,3,2.1,3,2,3C1.3,3,0.8,3.5,0.8,4.2c0,0.3,0.1,0.6,0.4,0.9c0.1,0.2,0.1,0.4,0,0.6C1,5.7,0.7,5.7,0.6,5.6c0,0,0,0,0,0
	C0.2,5.2,0,4.7,0,4.2"/>
</svg>
