<svg xmlns="http://www.w3.org/2000/svg" width="10.596" height="8.775" viewBox="0 0 10.596 8.775">
  <g id="그룹_32760" data-name="그룹 32760" transform="translate(-997 -403)">
    <g id="그룹_32332" data-name="그룹 32332" transform="translate(997 403)">
      <path id="패스_1718" data-name="패스 1718" d="M2598.922,1010.886v-.141a1.6,1.6,0,0,0-1.513-1.613,1.578,1.578,0,0,0-1.576,1.134.339.339,0,0,0,.324.436h.02a.335.335,0,0,0,.322-.246.885.885,0,0,1,.934-.629.9.9,0,0,1,.8.906v.154a.884.884,0,0,1-.884.884h-6.954a.346.346,0,0,0,0,.692h6.954A1.576,1.576,0,0,0,2598.922,1010.886Z" transform="translate(-2590.046 -1009.131)" fill="#b7b7b7"/>
      <path id="패스_1719" data-name="패스 1719" d="M2641.9,1071.784h-6a.356.356,0,0,0-.361.335.346.346,0,0,0,.346.356h6.014a.346.346,0,0,0,.346-.346h0A.346.346,0,0,0,2641.9,1071.784Z" transform="translate(-2632.604 -1067.743)" fill="#b7b7b7"/>
      <path id="패스_1720" data-name="패스 1720" d="M2608.39,1093.527h-8.031a.346.346,0,0,0-.346.346h0a.346.346,0,0,0,.346.346h8.031a.884.884,0,0,1,.884.884v.154a.9.9,0,0,1-.8.906.885.885,0,0,1-.934-.629.335.335,0,0,0-.322-.246h-.02a.339.339,0,0,0-.323.436,1.578,1.578,0,0,0,1.575,1.134,1.6,1.6,0,0,0,1.513-1.613v-.141A1.576,1.576,0,0,0,2608.39,1093.527Z" transform="translate(-2599.37 -1088.083)" fill="#b7b7b7"/>
    </g>
  </g>
</svg>
