<?xml version="1.0" encoding="utf-8"?>
<!-- Generator: Adobe Illustrator 25.4.1, SVG Export Plug-In . SVG Version: 6.00 Build 0)  -->
<svg version="1.1" id="Layer_1" xmlns="http://www.w3.org/2000/svg" xmlns:xlink="http://www.w3.org/1999/xlink" x="0px" y="0px"
	 viewBox="0 0 8.8 8.8" style="enable-background:new 0 0 8.8 8.8;" xml:space="preserve">
<style type="text/css">
	.st0{fill:#B7B7B7;}
</style>
<path class="st0" d="M4.4,1.8C4.1,1.8,4,1.6,4,1.3V0.4C4,0.2,4.1,0,4.4,0s0.4,0.2,0.4,0.4v0.9C4.8,1.6,4.6,1.8,4.4,1.8 M4.4,8.8
	C4.1,8.8,4,8.6,4,8.3V7.4C4,7.2,4.1,7,4.4,7s0.4,0.2,0.4,0.4v0.9C4.8,8.6,4.6,8.8,4.4,8.8 M6.5,2.6c-0.2,0-0.4-0.2-0.4-0.4
	c0-0.1,0-0.2,0.1-0.3l0.6-0.6c0.2-0.2,0.4-0.2,0.6,0c0.2,0.2,0.2,0.4,0,0.6L6.8,2.5C6.7,2.6,6.6,2.6,6.5,2.6 M1.6,7.6
	c-0.2,0-0.4-0.2-0.4-0.4c0-0.1,0-0.2,0.1-0.3l0.6-0.6c0.2-0.2,0.4-0.2,0.6,0c0.2,0.2,0.2,0.4,0,0.6c0,0,0,0,0,0L1.9,7.5
	C1.8,7.6,1.7,7.6,1.6,7.6 M8.3,4.8H7.4C7.2,4.8,7,4.6,7,4.4S7.2,4,7.4,4h0.9c0.2,0,0.4,0.2,0.4,0.4S8.6,4.8,8.3,4.8 M1.3,4.8H0.4
	C0.2,4.8,0,4.6,0,4.4S0.2,4,0.4,4h0.9c0.2,0,0.4,0.2,0.4,0.4S1.6,4.8,1.3,4.8 M7.2,7.6c-0.1,0-0.2,0-0.3-0.1L6.2,6.8
	c-0.2-0.2-0.2-0.4,0-0.6c0.2-0.2,0.4-0.2,0.6,0l0.6,0.6c0.2,0.2,0.2,0.4,0,0.6C7.4,7.6,7.3,7.6,7.2,7.6 M2.2,2.6
	c-0.1,0-0.2,0-0.3-0.1L1.3,1.9c-0.2-0.2-0.2-0.4,0-0.6c0.2-0.2,0.4-0.2,0.6,0l0.6,0.6c0.2,0.2,0.2,0.4,0,0.6
	C2.4,2.6,2.3,2.6,2.2,2.6 M4.4,6.3c-1.1,0-1.9-0.9-1.9-1.9s0.9-1.9,1.9-1.9s1.9,0.9,1.9,1.9C6.3,5.4,5.4,6.3,4.4,6.3"/>
</svg>
