<?xml version="1.0" encoding="utf-8"?>
<!-- Generator: Adobe Illustrator 25.4.1, SVG Export Plug-In . SVG Version: 6.00 Build 0)  -->
<svg version="1.1" id="Layer_1" xmlns="http://www.w3.org/2000/svg" xmlns:xlink="http://www.w3.org/1999/xlink" x="0px" y="0px"
	 viewBox="0 0 8.8 8.8" style="enable-background:new 0 0 8.8 8.8;" xml:space="preserve">
<style type="text/css">
	.st0{fill:#B7B7B7;}
</style>
<path class="st0" d="M4.4,0.6C3.9,0.6,3.5,1,3.5,1.5v3.9L3.4,5.4C2.8,6,2.7,6.9,3.2,7.6s1.5,0.8,2.2,0.2s0.8-1.5,0.2-2.2
	C5.5,5.6,5.4,5.5,5.4,5.4L5.2,5.3V1.5C5.2,1,4.9,0.6,4.4,0.6 M2.9,1.5C2.9,0.7,3.6,0,4.4,0s1.5,0.7,1.5,1.5v3.6
	c0.9,0.8,0.9,2.2,0.1,3C5.1,9,3.8,9,2.9,8.2C2.1,7.4,2,6,2.8,5.2c0,0,0.1-0.1,0.1-0.1V1.5z M5.4,6.6c0,0.5-0.4,1-1,1
	c-0.5,0-1-0.4-1-1c0-0.4,0.3-0.8,0.7-0.9V3c0-0.2,0.1-0.3,0.3-0.3c0.2,0,0.3,0.1,0.3,0.3v2.7C5.1,5.8,5.4,6.2,5.4,6.6"/>
</svg>
